# xmcd
#
# Track frame offsets: 
#        150
#        12802
#        28175
#        44260
#        61780
#        81750
#        112175
#        130927
#        145450
#        164577
#
# Disc length: 2504 seconds
#
# Revision: 3
# Processed by: cddbd v1.5PL3 Copyright (c) Steve Scherf et al.
# Submitted via: ExactAudioCopy v0.95a4
#
DISCID=8809c60a
DTITLE=Josh Rouse - Dressed Up Like Nebraska
DYEAR=1998
DGENRE=Country
TTITLE0=Suburban Sweetheart
TTITLE1=Dressed Up Like Nebraska
TTITLE2=Invisible
TTITLE3=Late Night Conversation
TTITLE4=Flair
TTITLE5=The White Trash Period of My Life
TTITLE6=A Simple Thing
TTITLE7=A Woman Lost in Serious Problems
TTITLE8=Lavina
TTITLE9=Reminiscent
EXTD=
EXTT0=
EXTT1=
EXTT2=
EXTT3=
EXTT4=
EXTT5=
EXTT6=
EXTT7=
EXTT8=
EXTT9=
PLAYORDER=
